<?xml version="1.0" encoding="utf-8"?>
<svg xmlns="http://www.w3.org/2000/svg" viewBox="0 0 320 80" width="320" height="80" role="img" aria-label="Myotragus — Grupo Scout">
  <defs>
    <linearGradient id="g" x1="0" x2="1">
      <stop offset="0" stop-color="#6b4ca0"/>
      <stop offset="1" stop-color="#8f74c9"/>
    </linearGradient>
  </defs>
  <rect width="100%" height="100%" fill="transparent"/>
  <g transform="translate(8,6)">
    <!-- Goat mark -->
    <g transform="translate(0,4) scale(1.15)">
      <path d="M28 6c-6 0-10 4-12 8-2 4-2 10 2 14 4 4 12 6 20 6s16-2 20-6c4-4 4-10 2-14-2-4-6-8-12-8-6 0-10 4-16 4s-10-4-12-4z" 
            fill="url(#g)" stroke="#3e2a6a" stroke-width="0.7" />
      <path d="M6 18 C2 12, 0 8, 6 6" fill="none" stroke="#3e2a6a" stroke-width="2" stroke-linecap="round"/>
      <path d="M50 18 C54 12, 56 8, 50 6" fill="none" stroke="#3e2a6a" stroke-width="2" stroke-linecap="round"/>
      <circle cx="22" cy="20" r="3" fill="#2b2b2b"/>
      <circle cx="38" cy="20" r="3" fill="#2b2b2b"/>
      <circle cx="22" cy="19" r="0.8" fill="#fff"/>
      <circle cx="38" cy="19" r="0.8" fill="#fff"/>
      <ellipse cx="30" cy="28" rx="3.5" ry="2.2" fill="#f2d7b1"/>
    </g>
    <!-- Text -->
    <text x="120" y="52" font-family="Inter, Arial, sans-serif" font-weight="700" font-size="28" fill="url(#g)">Myotragus</text>
    <text x="120" y="72" font-family="Inter, Arial, sans-serif" font-size="11" fill="#7b6f8f">Grupo Scout — ASDE Balears</text>
  </g>
</svg>
